<?xml version="1.0" encoding="UTF-8" standalone="no"?><svg xmlns="http://www.w3.org/2000/svg" xmlns:xlink="http://www.w3.org/1999/xlink" style="" version="1.1" viewBox="0 0 28 60" height="60" width="28"><defs id="defs2"><linearGradient id="l2549"><stop offset="0" style="stop-color:#000000;stop-opacity:0"/><stop offset="0.821" style="stop-color:#000000;stop-opacity:0"/><stop offset="1" style="stop-color:#000000;stop-opacity:0.75"/></linearGradient><linearGradient id="l2405"><stop style="stop-color:#000000;stop-opacity:0" offset="0"/><stop style="stop-color:#000000;stop-opacity:0" offset="0.752"/><stop style="stop-color:#000000;stop-opacity:0.75" offset="1"/></linearGradient><linearGradient id="l919"><stop offset="0" style="stop-color:#ffffff;stop-opacity:1;"/><stop offset="1" style="stop-color:#ffffff;stop-opacity:0;"/></linearGradient><linearGradient id="l909"><stop offset="0" style="stop-color:#ffffff;stop-opacity:1;"/><stop offset="1" style="stop-color:#ffffff;stop-opacity:0;"/></linearGradient><radialGradient gradientUnits="userSpaceOnUse" gradientTransform="matrix(1.215,-1.095,0.509,0.564,-3.834,7.221)" r="8.866" fy="5.898" fx="4.527" cy="5.898" cx="4.527" id="r911" xlink:href="#l909"/><radialGradient gradientUnits="userSpaceOnUse" gradientTransform="matrix(1.625,-1.623,1.108,1.109,-39.856,32.733)" r="10.333" fy="23.600" fx="21.912" cy="23.600" cx="21.912" id="r921" xlink:href="#l919"/><radialGradient r="11" fy="12.093" fx="0.744" cy="12.093" cx="0.744" gradientTransform="matrix(0.998,0,6.960e-6,0.996,13.256,1.950)" gradientUnits="userSpaceOnUse" id="r2415" xlink:href="#l2405"/><radialGradient r="11" fy="12.093" fx="0.744" cy="12.093" cx="0.744" gradientTransform="matrix(1.049,0,7.312e-6,1.066,13.218,1.105)" gradientUnits="userSpaceOnUse" id="r2541" xlink:href="#l2549"/><radialGradient r="11" fy="12.093" fx="0.744" cy="12.093" cx="0.744" gradientTransform="matrix(1.049,0,7.312e-6,1.066,13.222,-30.903)" gradientUnits="userSpaceOnUse" id="r2541-0" xlink:href="#l2549"/><radialGradient gradientUnits="userSpaceOnUse" gradientTransform="matrix(1.625,-1.623,1.108,1.109,-39.852,0.724)" r="10.333" fy="23.600" fx="21.912" cy="23.600" cx="21.912" id="r921-6" xlink:href="#l919"/><radialGradient gradientUnits="userSpaceOnUse" gradientTransform="matrix(1.215,-1.095,0.509,0.564,-3.830,-24.787)" r="8.866" fy="5.898" fx="4.527" cy="5.898" cx="4.527" id="r911-4" xlink:href="#l919"/></defs><g transform="translate(0,32)" style="display:inline"><circle r="12.5" cy="14" cx="14" style="opacity:1;fill:none;stroke:#000000;stroke-width:3;stroke-linecap:round;stroke-linejoin:miter;stroke-miterlimit:4;stroke-dasharray:none;stroke-dashoffset:0;stroke-opacity:0.97;"/><path d="M 0.563,13.593 C 1.297,3.863 8.524,0.696 13.738,0.433 15.965,0.318 17.793,0.693 18,1.287 16.579,1.243 14.964,0.803 13.413,1.080 5.887,2.323 2.183,6.155 1.118,12.984 l -0.091,4.987 C 0.634,16.987 0.438,15.851 0.563,13.593 Z" style="fill:url(#r911);fill-rule:evenodd;stroke:none;"/><path d="M 25.043,10.450 C 23.602,6.188 19.761,-0.722 26.803,8.335 28.890,12.916 28.581,19.956 23.054,24.703 17.341,29.293 11.088,28.345 7.327,26.342 2.338,21.328 1.233,20.684 9.108,24.604 c 5.111,2.088 8.899,1.100 12.685,-1.934 3.118,-2.956 4.603,-7.493 3.250,-12.219 z" style="fill:url(#r921);fill-rule:evenodd;stroke:none;"/><path d="M 3.423,18.737 C 6.516,25.627 15.711,28.638 22.402,22.053 27.319,16.420 26.058,7.930 20.428,4.255 17.314,2.523 19.137,2.228 21.674,3.818 28.215,9.742 27.710,16.657 22.851,22.401 16.448,28.529 8.241,27.360 2.947,20.357 1.934,17.800 1.938,14.436 3.423,18.737 Z" style="fill:#686666;fill-opacity:0.52;fill-rule:evenodd;stroke:none;"/><path d="M 5.430,25.075 C 10.275,28.744 17.845,29.472 23.672,24.161 30.790,17.034 27.282,8.544 25.648,6.194 27.759,11.905 28.328,17.877 23.081,23.400 17.229,28.386 11.189,27.986 5.430,25.075 Z" style="fill:#000000;fill-opacity:0.39;fill-rule:evenodd;stroke:none;"/></g><g transform="translate(0,32)" style="display:inline"><ellipse ry="11.705" rx="11.551" cy="14" cx="14" style="opacity:1;fill:#74dc6d;"/></g><g transform="translate(0,32)" style="display:inline"><path d="M 14.000,14.242 V 7.634" style="fill:none;fill-rule:evenodd;stroke:#000000;stroke-width:2.7;stroke-linecap:round;stroke-linejoin:miter;stroke-miterlimit:4;stroke-dasharray:none;stroke-opacity:1"/><path d="m 17.811,10.567 c 0.986,0.924 1.614,2.472 1.619,3.836 -0.056,3.095 -2.518,5.397 -5.431,5.403 -2.838,-0.006 -5.414,-2.251 -5.424,-5.403 0.042,-1.834 0.805,-3.014 1.598,-3.824" style="fill:none;fill-rule:evenodd;stroke:#000000;stroke-width:2.3;stroke-linecap:round;stroke-linejoin:miter;stroke-miterlimit:4;stroke-dasharray:none;stroke-opacity:1"/></g><g transform="translate(0,32)" style="display:inline"><ellipse ry="11.771" rx="11.555" cy="14" cx="14" style="opacity:0.72;fill:url(#r2541);stroke:none;"/></g><g transform="translate(0,32)" style="display:inline"><ellipse transform="matrix(0.860,-0.509,0.553,0.832,0,0)" ry="4.662" rx="6.993" cy="25.322" cx="4.172" style="opacity:1;fill:#ffffff;fill-opacity:0.45;stroke:none;"/><circle r="12.5" cy="-18.009" cx="14.003" style="display:inline;opacity:1;fill:none;stroke:#000000;stroke-width:3;stroke-linecap:round;stroke-linejoin:miter;stroke-miterlimit:4;stroke-dasharray:none;stroke-dashoffset:0;stroke-opacity:0.97;"/><path d="M 0.567,-18.415 C 1.301,-28.145 8.528,-31.312 13.741,-31.575 c 2.227,-0.114 4.055,0.260 4.261,0.854 -1.420,-0.044 -3.035,-0.484 -4.586,-0.207 -7.526,1.243 -11.230,5.075 -12.294,11.904 l -0.091,4.987 c -0.392,-0.985 -0.588,-2.120 -0.464,-4.379 z" style="display:inline;fill:url(#r911-4);fill-rule:evenodd;stroke:none;"/><path d="m 25.047,-21.558 c -1.441,-4.261 -5.282,-11.172 1.759,-2.114 2.087,4.581 1.778,11.621 -3.748,16.368 -5.713,4.590 -11.966,3.642 -15.727,1.638 -4.988,-5.014 -6.093,-5.658 1.781,-1.738 5.111,2.088 8.899,1.100 12.685,-1.934 3.118,-2.956 4.603,-7.493 3.250,-12.219 z" style="display:inline;fill:url(#r921-6);fill-rule:evenodd;stroke:none;"/><path d="m 3.427,-13.271 c 3.093,6.889 12.288,9.901 18.978,3.316 4.917,-5.632 3.656,-14.123 -1.973,-17.798 -3.113,-1.732 -1.291,-2.026 1.245,-0.437 6.541,5.924 6.035,12.839 1.177,18.583 -6.403,6.128 -14.609,4.958 -19.904,-2.043 -1.012,-2.557 -1.009,-5.921 0.475,-1.620 z" style="display:inline;fill:#686666;fill-opacity:0.52;fill-rule:evenodd;stroke:none;"/><path d="m 5.434,-6.933 c 4.844,3.668 12.415,4.396 18.241,-0.914 7.118,-7.127 3.610,-15.616 1.976,-17.967 2.111,5.710 2.680,11.682 -2.566,17.206 -5.852,4.985 -11.891,4.585 -17.651,1.674 z" style="display:inline;fill:#000000;fill-opacity:0.39;fill-rule:evenodd;stroke:none;"/><ellipse ry="11.705" rx="11.551" cy="-18.009" cx="14.003" style="display:inline;opacity:1;fill:#ec8989;stroke:none;"/><path d="m 14.003,-17.766 v -6.607" style="display:inline;fill:none;fill-rule:evenodd;stroke:#000000;stroke-width:2.7;stroke-linecap:round;stroke-linejoin:miter;stroke-miterlimit:4;stroke-dasharray:none;"/><path d="m 17.815,-21.441 c 0.986,0.924 1.614,2.472 1.619,3.836 -0.056,3.095 -2.518,5.397 -5.431,5.403 -2.838,-0.006 -5.414,-2.251 -5.424,-5.403 0.042,-1.834 0.805,-3.014 1.598,-3.824" style="display:inline;fill:none;fill-rule:evenodd;stroke:#000000;stroke-width:2.3;stroke-linecap:round;stroke-linejoin:miter;stroke-miterlimit:4;stroke-dasharray:none;"/><ellipse ry="11.771" rx="11.555" cy="-18.009" cx="14.003" style="display:inline;opacity:0.72;fill:url(#r2541-0);stroke:none;"/><ellipse transform="matrix(0.860,-0.509,0.553,0.832,0,0)" ry="4.662" rx="6.993" cy="-2.253" cx="21.922" style="display:inline;opacity:1;fill:#ffffff;fill-opacity:0.34;stroke:none;"/></g></svg>
